<?xml version="1.0" encoding="UTF-8"?>
<svg version="1.1" xmlns="http://www.w3.org/2000/svg" width="242" height="240">
<path d="M0 0 C1.23322998 0.00491455 2.46645996 0.0098291 3.73706055 0.01489258 C12.59852025 0.12889829 20.64874091 0.80050444 29.1875 3.3125 C30.40824219 3.6528125 31.62898437 3.993125 32.88671875 4.34375 C60.44682808 12.72791481 82.78719764 31.78105459 96.40283203 57.06005859 C110.36190614 84.07570886 111.88355346 116.0325255 103.0625 144.9375 C92.9293094 172.95456567 73.09721195 195.24966897 46.1875 208.3125 C33.15487194 214.17783361 19.48796065 217.6235727 5.1875 218.3125 C3.87845703 218.39177734 3.87845703 218.39177734 2.54296875 218.47265625 C-25.99583633 219.39068774 -53.66852141 208.40246476 -74.4140625 188.984375 C-95.40700801 168.83004387 -108.00334315 142.25669129 -109.0625 112.9921875 C-109.65212145 82.6512502 -100.4379753 55.02122118 -79.64868164 32.62890625 C-58.6882497 11.05559618 -29.82721627 -0.14101253 0 0 Z M-48.8125 63.3125 C-49.52943284 64.50555932 -50.2265803 65.7106306 -50.90844727 66.92407227 C-51.53678467 68.04225342 -52.16512207 69.16043457 -52.8125 70.3125 C-40.98996471 70.4054009 -29.16751704 70.4763669 -17.34469032 70.51974869 C-11.8541736 70.54057546 -6.36390761 70.5688033 -0.87353516 70.61425781 C4.4303291 70.65789075 9.73395298 70.681674 15.03798294 70.69200897 C17.05608526 70.69936908 19.07417523 70.71374138 21.09217453 70.73542023 C34.30958144 70.87169508 45.22100551 70.89552935 55.42578125 61.39453125 C58.48323033 57.78118233 60.37051338 53.65404975 62.1875 49.3125 C58.49301265 46.96993851 55.27271989 47.0472058 50.96313477 47.02197266 C50.2421611 47.01525543 49.52118744 47.00853821 48.77836609 47.00161743 C46.39514246 46.98262785 44.01220086 46.97871136 41.62890625 46.9765625 C39.96182645 46.97013015 38.29474776 46.96340146 36.62767029 46.95639038 C33.12813711 46.9444116 29.62870262 46.94070966 26.12915039 46.94189453 C21.67765656 46.94209659 17.22680929 46.91491528 12.77546787 46.88035011 C9.32727753 46.85792918 5.87923831 46.85406176 2.43098259 46.85511398 C0.79217257 46.85277615 -0.84664281 46.84405695 -2.48538017 46.82844925 C-19.01424005 46.6858968 -37.39105041 50.03106879 -48.8125 63.3125 Z M-80.8125 96.3125 C-86.61681506 102.81819738 -86.61681506 102.81819738 -89.8125 110.3125 C-77.72919561 110.40539098 -65.6459769 110.47636192 -53.56238747 110.51974869 C-47.95080531 110.5405776 -42.33946839 110.56880944 -36.72802734 110.61425781 C-31.30745424 110.65788299 -25.88711626 110.6816724 -20.46638107 110.69200897 C-18.4036222 110.69937046 -16.34087545 110.71374547 -14.27821732 110.73542023 C-11.37742061 110.7646758 -8.47758185 110.76844677 -5.57666016 110.76660156 C-4.73364349 110.78098267 -3.89062683 110.79536377 -3.02206421 110.81018066 C4.43040058 110.75925521 10.63714881 108.44271071 17 104.625 C21.46370273 99.90622854 24.01147605 94.65763595 25.1875 88.3125 C17.70669139 88.16643105 10.22581073 88.02455314 2.74487305 87.88525391 C0.21328028 87.83765977 -2.31829625 87.78919252 -4.84985352 87.73974609 C-18.45263731 87.47466898 -32.05467987 87.25901896 -45.66015625 87.2109375 C-47.31740471 87.19963806 -47.31740471 87.19963806 -49.00813293 87.18811035 C-60.4094195 87.1770589 -72.26326977 87.84242931 -80.8125 96.3125 Z M-58.75 140.375 C-61.35999516 144.09226584 -62.8125 146.75027306 -62.8125 151.3125 C-55.5076484 151.4460867 -48.20274762 151.57658901 -40.89777946 151.70365143 C-37.50197481 151.76280431 -34.1062016 151.82313394 -30.71044922 151.88525391 C-21.41141264 152.05495699 -12.11235415 152.19819895 -2.8125 152.3125 C-1.78410759 152.32585388 -1.78410759 152.32585388 -0.73493958 152.33947754 C4.02825824 152.40035307 8.79119045 152.43913126 13.5546875 152.46875 C14.77834015 152.4836145 16.0019928 152.498479 17.26272583 152.51379395 C28.94849479 152.55244308 37.87827638 150.83725748 47.8125 144.6875 C52.32226794 140.17773206 55.76104103 134.5454339 57.1875 128.3125 C45.39947662 128.24275369 33.61150296 128.18956413 21.82331467 128.15706348 C16.34860658 128.14145878 10.87404047 128.12031605 5.39941406 128.08618164 C0.10851918 128.05340213 -5.1822398 128.03560798 -10.47322845 128.02786827 C-12.48407885 128.02235798 -14.49492245 128.01159839 -16.50571442 127.99530983 C-39.8494985 127.79905611 -39.8494985 127.79905611 -58.75 140.375 Z " fill="#4151E9" transform="translate(122.8125,13.6875)"/>
<path d="M0 0 C11.17240978 1.21394508 22.85217011 14.78667104 30 23 C48.87282322 46.62089109 56.43703769 75.54057094 53.77734375 105.50878906 C51.82669652 122.86542829 46.74085902 145.94169514 33 158 C32.67 157.01 32.34 156.02 32 155 C32.66 155 33.32 155 34 155 C34 154.01 34 153.02 34 152 C34.66 152 35.32 152 36 152 C35.95875 151.2575 35.9175 150.515 35.875 149.75 C36.00543093 146.88051956 36.46084023 145.39424853 38 143 C38.66 142.67 39.32 142.34 40 142 C41.92481688 138.76630765 42.96555983 136.24108117 43.5 132.5 C44 129 44 129 45.4375 126.1875 C47.21509119 122.56121396 47.87789729 119.22358651 48.5703125 115.26953125 C49 113 49 113 50 110 C50.04325781 108.45894034 50.04016009 106.9161435 50 105.375 C49.96225644 103.91715517 49.95354285 102.45759317 50 101 C50.33 100.67 50.66 100.34 51 100 C51.12834819 97.46586949 51.1897612 94.9723104 51.1875 92.4375 C51.18814453 91.71111328 51.18878906 90.98472656 51.18945312 90.23632812 C51.13974488 85.19771927 50.6021709 80.80651269 49 76 C49.66 76 50.32 76 51 76 C50.319375 74.8553125 50.319375 74.8553125 49.625 73.6875 C47.68348627 69.85916307 47.15477277 65.89633146 46.52734375 61.68359375 C45.9810716 58.90367546 45.12824995 56.59497488 44 54 C43.41412109 52.60201172 43.41412109 52.60201172 42.81640625 51.17578125 C42.40261719 50.23089844 41.98882812 49.28601563 41.5625 48.3125 C40.94568359 46.88357422 40.94568359 46.88357422 40.31640625 45.42578125 C39.09611516 42.7269918 39.09611516 42.7269918 36 41 C36 39.68 36 38.36 36 37 C34.67732273 35.98594743 33.34275169 34.98731742 32 34 C31.32499374 32.33669342 30.65963019 30.66946405 30 29 C26.65961291 23.53926645 23.2795808 18.72676292 18 15 C17.67 14.34 17.34 13.68 17 13 C15.35636866 12.27840576 13.68949614 11.60648579 12 11 C12 10.34 12 9.68 12 9 C11.030625 8.71125 10.06125 8.4225 9.0625 8.125 C6 7 6 7 5 5 C4.154375 4.505 3.30875 4.01 2.4375 3.5 C1.633125 3.005 0.82875 2.51 0 2 C0 1.34 0 0.68 0 0 Z " fill="#8133F7" transform="translate(177,29)"/>
<path d="M0 0 C0.66 0 1.32 0 2 0 C1.6596875 1.5778125 1.6596875 1.5778125 1.3125 3.1875 C0.95262901 7.57792604 1.75483955 8.40774328 4 12 C4 14.33333333 4 16.66666667 4 19 C4.95653635 21.3514852 5.95281202 23.68745988 7 26 C7 27.32 7 28.64 7 30 C7.66 30.33 8.32 30.66 9 31 C10.125 33.0625 10.125 33.0625 11 35 C10.505 35.495 10.505 35.495 10 36 C10.66 36.33 11.32 36.66 12 37 C12.474375 38.11375 12.94875 39.2275 13.4375 40.375 C14.86388229 43.6842069 15.56352931 44.66098814 18 47 C18.99344826 48.76256949 19.98584221 50.52584956 20.95703125 52.30078125 C22.027042 54.19190243 22.027042 54.19190243 24.125 56.125 C26.26144795 58.26144795 27.05274194 60.15822581 28 63 C28.66 63 29.32 63 30 63 C31.625 64.375 31.625 64.375 33 66 C33 66.66 33 67.32 33 68 C33.99 68 34.98 68 36 68 C36.33 69.32 36.66 70.64 37 72 C37.99 71.67 38.98 71.34 40 71 C40.99 71.495 40.99 71.495 42 72 C42 72.66 42 73.32 42 74 C44.11785113 75.11785113 44.11785113 75.11785113 47 76 C47.7425 76.78375 48.485 77.5675 49.25 78.375 C52.43756737 81.41767795 54.91485494 82.47808321 59 84 C59 84.66 59 85.32 59 86 C60.98 85.505 60.98 85.505 63 85 C63.33 85.66 63.66 86.32 64 87 C65.82510997 87.78015621 67.68606676 88.47795406 69.5625 89.125 C70.57441406 89.47820312 71.58632812 89.83140625 72.62890625 90.1953125 C73.41136719 90.46085937 74.19382812 90.72640625 75 91 C75 91.99 75 92.98 75 94 C52.8851062 91.69636523 32.44449875 72.55323465 18.81640625 56.4140625 C17.04025139 54.01030557 15.50201823 51.58478381 14 49 C13.64744141 48.39462402 13.29488281 47.78924805 12.93164062 47.16552734 C5.91070712 34.94945585 -1.16861453 21.22710144 -1.125 6.8125 C-1.12757812 5.95269531 -1.13015625 5.09289062 -1.1328125 4.20703125 C-1 2 -1 2 0 0 Z " fill="#1A78EA" transform="translate(17,133)"/>
<path d="M0 0 C2 2 2 2 2 6 C1.34 6 0.68 6 0 6 C-0.144375 6.7425 -0.28875 7.485 -0.4375 8.25 C-0.90187492 10.52027739 -1.41863569 12.75759479 -2 15 C-2.66 15 -3.32 15 -4 15 C-3.6596875 16.0828125 -3.6596875 16.0828125 -3.3125 17.1875 C-3 20 -3 20 -4.41015625 22.33422852 C-9.61733141 31.06536267 -8.61747464 44.18353537 -9.2109375 54.08007812 C-9.28570313 55.18931641 -9.36046875 56.29855469 -9.4375 57.44140625 C-9.49808594 58.43857666 -9.55867188 59.43574707 -9.62109375 60.46313477 C-10 63 -10 63 -12 66 C-18.10618328 53.78763344 -12.02117503 31.22386084 -8.10986328 18.92456055 C-5.91224176 12.37905161 -3.07912043 6.1794032 0 0 Z " fill="#2378E9" transform="translate(27,68)"/>
<path d="M0 0 C0.33 0.66 0.66 1.32 1 2 C32.68 2 64.36 2 97 2 C93.03545607 4.64302929 89.62973181 4.26514283 85.03051758 4.22705078 C84.11324387 4.22734283 83.19597015 4.22763489 82.25090027 4.22793579 C79.2153481 4.22654111 76.1800406 4.21097333 73.14453125 4.1953125 C71.04131708 4.19158286 68.93810117 4.18873566 66.83488464 4.18673706 C61.29626681 4.17909673 55.75775368 4.15944475 50.21917725 4.1373291 C44.56865862 4.11687932 38.91812309 4.1077372 33.26757812 4.09765625 C22.17833938 4.07619928 11.0891784 4.04205847 0 4 C0 2.68 0 1.36 0 0 Z " fill="#3463E8" transform="translate(32,122)"/>
<path d="M0 0 C0.33 0 0.66 0 1 0 C4.70662035 20.91017348 -5.81141796 41.0282288 -17 58 C-17.66 57.67 -18.32 57.34 -19 57 C-19 56.34 -19 55.68 -19 55 C-18.34 55 -17.68 55 -17 55 C-17 54.01 -17 53.02 -17 52 C-16.34 52 -15.68 52 -15 52 C-15.04125 51.2575 -15.0825 50.515 -15.125 49.75 C-14.99456907 46.88051956 -14.53915977 45.39424853 -13 43 C-12.01 42.505 -12.01 42.505 -11 42 C-9.07518312 38.76630765 -8.03444017 36.24108117 -7.5 32.5 C-7 29 -7 29 -5.5625 26.1875 C-3.78490881 22.56121396 -3.12210271 19.22358651 -2.4296875 15.26953125 C-2 13 -2 13 -1 10 C-0.95674219 8.45894034 -0.95983991 6.9161435 -1 5.375 C-1.03774356 3.91715517 -1.04645715 2.45759317 -1 1 C-0.67 0.67 -0.34 0.34 0 0 Z " fill="#7435F5" transform="translate(228,129)"/>
<path d="M0 0 C0.33 0.99 0.66 1.98 1 3 C0.23816406 3.14695313 -0.52367188 3.29390625 -1.30859375 3.4453125 C-9.9280528 5.31770435 -16.31330917 8.1242481 -22.4375 14.5625 C-25.01163357 18.57814836 -26 21.18778983 -26 26 C-13.46 26.33 -0.92 26.66 12 27 C12 27.33 12 27.66 12 28 C3.49469907 28.82175421 -4.95611418 29.23884581 -13.5 29.3125 C-14.65242188 29.34150391 -15.80484375 29.37050781 -16.9921875 29.40039062 C-18.09820312 29.40876953 -19.20421875 29.41714844 -20.34375 29.42578125 C-21.33568359 29.44036377 -22.32761719 29.45494629 -23.34960938 29.4699707 C-26.7260208 28.87126105 -27.90779426 27.66025748 -30 25 C-30.22970769 22.13909508 -29.57032088 19.8516044 -29 17 C-28.34 17 -27.68 17 -27 17 C-26.5978125 15.8553125 -26.5978125 15.8553125 -26.1875 14.6875 C-25.04204753 12.09516021 -24.23584819 10.69924463 -22 9 C-21.01 9 -20.02 9 -19 9 C-18.34 7.35 -17.68 5.7 -17 4 C-16.01 4.33 -15.02 4.66 -14 5 C-14 4.34 -14 3.68 -14 3 C-4.58997722 -0.44419134 -4.58997722 -0.44419134 0 0 Z " fill="#266AE5" transform="translate(87,140)"/>
<path d="M0 0 C11.96288087 1.2998342 24.28595684 16.40499087 31.82421875 25.10546875 C34.52080128 28.60561742 35.6778508 31.59729426 36 36 C34.125 35.3125 34.125 35.3125 32 34 C31.32100263 32.33831868 30.6563661 30.67075006 30 29 C26.65961291 23.53926645 23.2795808 18.72676292 18 15 C17.67 14.34 17.34 13.68 17 13 C15.35636866 12.27840576 13.68949614 11.60648579 12 11 C12 10.34 12 9.68 12 9 C11.030625 8.71125 10.06125 8.4225 9.0625 8.125 C6 7 6 7 5 5 C4.154375 4.505 3.30875 4.01 2.4375 3.5 C1.633125 3.005 0.82875 2.51 0 2 C0 1.34 0 0.68 0 0 Z " fill="#7B31F6" transform="translate(177,29)"/>
<path d="M0 0 C0.99 0.99 1.98 1.98 3 3 C2.59007812 3.60328125 2.18015625 4.2065625 1.7578125 4.828125 C1.21898437 5.62734375 0.68015625 6.4265625 0.125 7.25 C-0.40867188 8.03890625 -0.94234375 8.8278125 -1.4921875 9.640625 C-3.01223395 11.91573879 -3.01223395 11.91573879 -4.0390625 14.15625 C-5.45560153 16.87416229 -7.52111691 18.26478184 -10 20 C-10.66 20 -11.32 20 -12 20 C-12.763125 20.639375 -13.52625 21.27875 -14.3125 21.9375 C-17.05463805 24.04193152 -18.57895433 24.81507861 -22 25 C-22.66 24.34 -23.32 23.68 -24 23 C-22.62438176 20.24876351 -21.2461281 20.23884775 -18.375 19.25 C-8.47541814 15.37195867 -4.57575154 9.419679 0 0 Z " fill="#613DF0" transform="translate(185,62)"/>
<path d="M0 0 C1.27875 -0.02900391 2.5575 -0.05800781 3.875 -0.08789062 C5.70804688 -0.10045898 5.70804688 -0.10045898 7.578125 -0.11328125 C8.6909082 -0.12786377 9.80369141 -0.14244629 10.95019531 -0.1574707 C13.75 0.3125 13.75 0.3125 15.63574219 2.33911133 C16.1872998 3.31593872 16.1872998 3.31593872 16.75 4.3125 C13.85388456 4.17115273 10.9581919 4.0245847 8.0625 3.875 C7.24587891 3.83568359 6.42925781 3.79636719 5.58789062 3.75585938 C1.55344189 3.54351997 -2.30747309 3.26802078 -6.25 2.3125 C-6.58 2.9725 -6.91 3.6325 -7.25 4.3125 C-7.83007812 4.2403125 -8.41015625 4.168125 -9.0078125 4.09375 C-13.45087574 3.5658613 -17.76631578 3.19753374 -22.25 3.3125 C-21.92 2.6525 -21.59 1.9925 -21.25 1.3125 C-14.2193779 -0.05201729 -7.13516539 0.05460586 0 0 Z " fill="#4634EE" transform="translate(123.25,13.6875)"/>
<path d="M0 0 C20.79 0 41.58 0 63 0 C63 0.33 63 0.66 63 1 C61.61047119 1.03758423 61.61047119 1.03758423 60.19287109 1.07592773 C56.68514526 1.17228422 53.17751912 1.27142227 49.66992188 1.37231445 C48.16506928 1.41505867 46.66018668 1.45676191 45.15527344 1.49731445 C36.32099753 1.73615836 27.55001041 2.10907907 18.74462891 2.89868164 C16 3 16 3 13 2 C10.15957588 1.97045621 7.33491152 2.06590599 4.49609375 2.16015625 C2 2 2 2 0 0 Z " fill="#3152E5" transform="translate(69,85)"/>
<path d="M0 0 C4 1.33333333 8 2.66666667 12 4 C12 4.66 12 5.32 12 6 C13.32 5.67 14.64 5.34 16 5 C16.33 5.66 16.66 6.32 17 7 C18.82510997 7.78015621 20.68606676 8.47795406 22.5625 9.125 C24.08037109 9.65480469 24.08037109 9.65480469 25.62890625 10.1953125 C26.41136719 10.46085938 27.19382812 10.72640625 28 11 C28 11.99 28 12.98 28 14 C22.16070237 13.45703105 17.50319966 11.10026364 12.3125 8.5625 C11.45849609 8.15451172 10.60449219 7.74652344 9.72460938 7.32617188 C6.32581353 5.68951685 3.14503377 4.09668918 0 2 C0 1.34 0 0.68 0 0 Z " fill="#276EE6" transform="translate(64,213)"/>
<path d="M0 0 C9.24 0 18.48 0 28 0 C28 0.66 28 1.32 28 2 C28.66 2 29.32 2 30 2 C29.67 3.32 29.34 4.64 29 6 C28.34 6 27.68 6 27 6 C26.896875 7.093125 26.79375 8.18625 26.6875 9.3125 C26.02692273 12.85559629 25.7972908 13.93243723 23 16 C22.01 15.67 21.02 15.34 20 15 C22.31 10.38 24.62 5.76 27 1 C18.09 1 9.18 1 0 1 C0 0.67 0 0.34 0 0 Z " fill="#443DE9" transform="translate(153,140)"/>
<path d="M0 0 C7.8859085 1.16892891 14.74818885 3.73543897 22 7 C18.44610126 8.94939593 16.94580908 9.12737402 13 8 C10.99255385 7.35610218 8.99054876 6.69437747 7 6 C7 5.34 7 4.68 7 4 C4.03 3.505 4.03 3.505 1 3 C0.67 3.66 0.34 4.32 0 5 C0 3.35 0 1.7 0 0 Z " fill="#7239F4" transform="translate(149,17)"/>
<path d="M0 0 C0.66 0.33 1.32 0.66 2 1 C1.42334609 5.7871428 -0.64082996 9.25128824 -3.0625 13.3125 C-3.62807617 14.28026367 -3.62807617 14.28026367 -4.20507812 15.26757812 C-5.13037493 16.84878152 -6.06432681 18.4249146 -7 20 C-7.99 20 -8.98 20 -10 20 C-10 19.34 -10 18.68 -10 18 C-9.34 18 -8.68 18 -8 18 C-8 17.01 -8 16.02 -8 15 C-7.34 15 -6.68 15 -6 15 C-6.04125 14.2575 -6.0825 13.515 -6.125 12.75 C-5.99456907 9.88051956 -5.53915977 8.39424853 -4 6 C-3.34 5.67 -2.68 5.34 -2 5 C-1.27840576 3.35636866 -0.60648579 1.68949614 0 0 Z " fill="#602EF2" transform="translate(219,166)"/>
<path d="M0 0 C0.66 0 1.32 0 2 0 C1.4887988 4.50343911 -0.17521358 6.87525426 -3.0625 10.3125 C-3.79597656 11.19550781 -4.52945313 12.07851562 -5.28515625 12.98828125 C-5.85105469 13.65214844 -6.41695312 14.31601563 -7 15 C-7.66 14.01 -8.32 13.02 -9 12 C-7.68858144 10.18671738 -6.37583526 8.37439486 -5.0625 6.5625 C-3.96615234 5.04849609 -3.96615234 5.04849609 -2.84765625 3.50390625 C-1 1 -1 1 0 0 Z " fill="#2566E6" transform="translate(38,53)"/>
<path d="M0 0 C4.13145246 1.35158885 7.92546338 1.55096694 12.2421875 1.7265625 C13.4178125 1.78457031 13.4178125 1.78457031 14.6171875 1.84375 C16.53350117 1.93722872 18.45031069 2.02044745 20.3671875 2.1015625 C20.3671875 2.4315625 20.3671875 2.7615625 20.3671875 3.1015625 C11.81931569 5.06694908 2.98708906 4.25088271 -5.6328125 3.1015625 C-5.6328125 2.1115625 -5.6328125 1.1215625 -5.6328125 0.1015625 C-2.6328125 -0.8984375 -2.6328125 -0.8984375 0 0 Z " fill="#3D69EA" transform="translate(112.6328125,227.8984375)"/>
<path d="M0 0 C14.19 0 28.38 0 43 0 C43 0.33 43 0.66 43 1 C39.04 1 35.08 1 31 1 C31 1.66 31 2.32 31 3 C29.93785278 2.75334595 29.93785278 2.75334595 28.85424805 2.50170898 C25.93022294 1.98773485 23.29743449 1.91753539 20.33203125 1.97265625 C19.27435547 1.98490234 18.21667969 1.99714844 17.12695312 2.00976562 C14.90553668 2.04510932 12.68417704 2.08421117 10.46289062 2.12695312 C9.40908203 2.13791016 8.35527344 2.14886719 7.26953125 2.16015625 C5.82477417 2.18541382 5.82477417 2.18541382 4.35083008 2.21118164 C2 2 2 2 0 0 Z " fill="#3F5EE5" transform="translate(83,126)"/>
<path d="M0 0 C-1.47721422 3.45201639 -3.43794001 5.64961936 -6.125 8.25 C-6.84945312 8.95640625 -7.57390625 9.6628125 -8.3203125 10.390625 C-8.87460938 10.92171875 -9.42890625 11.4528125 -10 12 C-11.32 11.01 -12.64 10.02 -14 9 C-13.401875 8.731875 -12.80375 8.46375 -12.1875 8.1875 C-8.77915781 6.3372571 -7.14857639 4.22286458 -5 1 C-3 0 -3 0 0 0 Z " fill="#5F48EF" transform="translate(205,193)"/>
<path d="M0 0 C0.66 0.33 1.32 0.66 2 1 C2.0580476 4.27075883 2.09361165 7.54138524 2.125 10.8125 C2.14175781 11.74126953 2.15851563 12.67003906 2.17578125 13.62695312 C2.18222656 14.51962891 2.18867188 15.41230469 2.1953125 16.33203125 C2.20578613 17.15421143 2.21625977 17.9763916 2.22705078 18.82348633 C2 21 2 21 0 24 C-0.76299944 15.85351368 -1.21521251 8.11388044 0 0 Z " fill="#8847F8" transform="translate(229,111)"/>
<path d="M0 0 C0.73734375 -0.03738281 1.4746875 -0.07476562 2.234375 -0.11328125 C4.25 0.3125 4.25 0.3125 7.25 4.3125 C1.31 3.9825 -4.63 3.6525 -10.75 3.3125 C-11.08 2.6525 -11.41 1.9925 -11.75 1.3125 C-7.8377857 0.64659118 -3.96669808 0.1752878 0 0 Z " fill="#5E3DF0" transform="translate(132.75,13.6875)"/>
<path d="M0 0 C0.99 0.99 1.98 1.98 3 3 C2.09522263 4.46573934 1.17565859 5.92235756 0.25 7.375 C-0.26046875 8.18710938 -0.7709375 8.99921875 -1.296875 9.8359375 C-3.0673335 12.08555679 -4.36907419 12.95906848 -7 14 C-5.23570801 9.02790438 -2.6060834 4.56561939 0 0 Z " fill="#672FF3" transform="translate(185,62)"/>
<path d="M0 0 C0.66 0 1.32 0 2 0 C1.67 1.32 1.34 2.64 1 4 C0.34 4 -0.32 4 -1 4 C-1.33 4.99 -1.66 5.98 -2 7 C-7.93662491 10.13633014 -7.93662491 10.13633014 -11.4375 9.6875 C-11.953125 9.460625 -12.46875 9.23375 -13 9 C-11.35 8.34 -9.7 7.68 -8 7 C-8 6.34 -8 5.68 -8 5 C-6.20963542 3.99088542 -4.41927083 2.98177083 -2.62890625 1.97265625 C-1.02121854 1.1027487 -1.02121854 1.1027487 0 0 Z " fill="#544AED" transform="translate(170,157)"/>
<path d="M0 0 C0.66 0.66 1.32 1.32 2 2 C0.35 2.33 -1.3 2.66 -3 3 C-3.33 3.99 -3.66 4.98 -4 6 C-6.21701147 7.58965571 -8.57862473 8.72327486 -11 10 C-11.66 9.34 -12.32 8.68 -13 8 C-12.01 7.67 -11.02 7.34 -10 7 C-10 6.34 -10 5.68 -10 5 C-6.86543557 2.04455354 -4.37231329 0.23634126 0 0 Z " fill="#2C6FE6" transform="translate(55,99)"/>
<path d="M0 0 C1.32 0.33 2.64 0.66 4 1 C4 1.66 4 2.32 4 3 C4.66 3 5.32 3 6 3 C8.7003056 5.23068723 10.40974009 7.89899317 12 11 C11.67 11.66 11.34 12.32 11 13 C9.16052663 11.21427748 7.32842259 9.42197551 5.5 7.625 C4.71302734 6.86316406 4.71302734 6.86316406 3.91015625 6.0859375 C2.56846819 4.76167396 1.28004185 3.38394135 0 2 C0 1.34 0 0.68 0 0 Z " fill="#116BE9" transform="translate(41,193)"/>
<path d="M0 0 C0.33 0.99 0.66 1.98 1 3 C-0.7491497 3.33776684 -2.49936145 3.67003671 -4.25 4 C-5.71179688 4.2784375 -5.71179688 4.2784375 -7.203125 4.5625 C-10 5 -10 5 -14 5 C-14 4.34 -14 3.68 -14 3 C-4.58997722 -0.44419134 -4.58997722 -0.44419134 0 0 Z " fill="#376AE6" transform="translate(87,140)"/>
<path d="M0 0 C0.99 0.33 1.98 0.66 3 1 C1.88321917 2.6721852 0.75633648 4.33762803 -0.375 6 C-1.00148438 6.928125 -1.62796875 7.85625 -2.2734375 8.8125 C-2.84320313 9.534375 -3.41296875 10.25625 -4 11 C-4.66 11 -5.32 11 -6 11 C-6.66 11.66 -7.32 12.32 -8 13 C-7.19631101 7.77602153 -3.85808027 3.47227224 0 0 Z " fill="#2874E7" transform="translate(38,112)"/>
<path d="M0 0 C3.11020134 2.54471018 4.00133026 5.15896252 5 9 C5.125 11.875 5.125 11.875 5 14 C0.82485754 9.15144747 -0.17534509 6.3124233 0 0 Z " fill="#7624F6" transform="translate(221,78)"/>
<path d="M0 0 C0.99 0.33 1.98 0.66 3 1 C-0.82180842 5.4008703 -3.47371099 6.80805531 -9 8 C-9 7.34 -9 6.68 -9 6 C-7.13671875 4.45703125 -7.13671875 4.45703125 -4.6875 2.8125 C-3.88699219 2.26207031 -3.08648437 1.71164063 -2.26171875 1.14453125 C-1.14216797 0.57798828 -1.14216797 0.57798828 0 0 Z " fill="#2C54E7" transform="translate(64,30)"/>
<path d="M0 0 C0.66 1.32 1.32 2.64 2 4 C0.875 6.75 0.875 6.75 -1 9 C-2.32 9 -3.64 9 -5 9 C-3.35 6.03 -1.7 3.06 0 0 Z " fill="#5C47EE" transform="translate(178,146)"/>
<path d="M0 0 C0.33 0 0.66 0 1 0 C1.28571429 8.57142857 1.28571429 8.57142857 -1 12 C-1.99 12 -2.98 12 -4 12 C-3.34 9.36 -2.68 6.72 -2 4 C-1.34 4 -0.68 4 0 4 C0 2.68 0 1.36 0 0 Z " fill="#6C29F4" transform="translate(227,143)"/>
<path d="M0 0 C0.99 0.66 1.98 1.32 3 2 C2.40353695 5.34019306 1.31705841 7.50470633 -1 10 C-1.99 10 -2.98 10 -4 10 C-3.67 9.01 -3.34 8.02 -3 7 C-2.34 6.67 -1.68 6.34 -1 6 C-1.020625 5.195625 -1.04125 4.39125 -1.0625 3.5625 C-1 1 -1 1 0 0 Z " fill="#3261E5" transform="translate(71,74)"/>
<path d="M0 0 C3.21043882 1.38188453 5.04936365 2.92421903 7.25 5.625 C8.03117188 6.57246094 8.03117188 6.57246094 8.828125 7.5390625 C9.40820312 8.26222656 9.40820312 8.26222656 10 9 C9.01 9 8.02 9 7 9 C5.30911778 7.02043058 3.64169528 5.02054804 2 3 C1.34 3 0.68 3 0 3 C0 2.01 0 1.02 0 0 Z " fill="#7422F7" transform="translate(194,41)"/>
<path d="M0 0 C0.66 0 1.32 0 2 0 C1.50769231 6.4 1.50769231 6.4 -1.0625 9.4375 C-2.0215625 10.2109375 -2.0215625 10.2109375 -3 11 C-3.33 10.01 -3.66 9.02 -4 8 C-3.34 8 -2.68 8 -2 8 C-2 7.01 -2 6.02 -2 5 C-1.34 5 -0.68 5 0 5 C0 3.35 0 1.7 0 0 Z " fill="#653DF2" transform="translate(213,176)"/>
<path d="M0 0 C-1.485 2.475 -1.485 2.475 -3 5 C-6.875 3.25 -6.875 3.25 -8 1 C-5.29120665 -0.35439668 -2.99066732 -0.06501451 0 0 Z " fill="#3A5CE8" transform="translate(73,28)"/>
<path d="M0 0 C1.2077558 3.62326739 0.54311128 4.64146369 -1 8 C-1.99 8 -2.98 8 -4 8 C-4 6.35 -4 4.7 -4 3 C-3.34 3 -2.68 3 -2 3 C-2 2.34 -2 1.68 -2 1 C-1.34 0.67 -0.68 0.34 0 0 Z " fill="#2D70E5" transform="translate(62,154)"/>
<path d="M0 0 C2.31 0 4.62 0 7 0 C5.06745228 2.0245738 3.36841312 3.42105792 1 5 C0.01 5 -0.98 5 -2 5 C-1.34 3.35 -0.68 1.7 0 0 Z " fill="#1B59E4" transform="translate(70,144)"/>
<path d="M0 0 C0.70125 0.144375 1.4025 0.28875 2.125 0.4375 C5.07556141 1.01478375 8.03270151 1.51695141 11 2 C11 2.33 11 2.66 11 3 C7.37 3 3.74 3 0 3 C0 2.01 0 1.02 0 0 Z " fill="#1B58E4" transform="translate(101,227)"/>
<path d="M0 0 C1.65 0 3.3 0 5 0 C5 0.66 5 1.32 5 2 C5.66 2 6.32 2 7 2 C6.67 3.32 6.34 4.64 6 6 C5.34 6 4.68 6 4 6 C3.67 6.66 3.34 7.32 3 8 C3.33 5.69 3.66 3.38 4 1 C2.68 0.67 1.36 0.34 0 0 Z " fill="#4E33EE" transform="translate(176,140)"/>
<path d="M0 0 C2 2 2 2 2 6 C1.01 6 0.02 6 -1 6 C-1 6.66 -1 7.32 -1 8 C-1.66 8 -2.32 8 -3 8 C-1.125 2.25 -1.125 2.25 0 0 Z " fill="#2F74E8" transform="translate(27,68)"/>
<path d="M0 0 C0.78375 0.04125 1.5675 0.0825 2.375 0.125 C3 2 3 2 3.375 4.125 C2.715 4.785 2.055 5.445 1.375 6.125 C1.375 4.805 1.375 3.485 1.375 2.125 C-0.605 2.125 -2.585 2.125 -4.625 2.125 C-2.625 0.125 -2.625 0.125 0 0 Z " fill="#3932EB" transform="translate(146.625,99.875)"/>
<path d="M0 0 C0.66 0.66 1.32 1.32 2 2 C0.35 2.33 -1.3 2.66 -3 3 C-3 3.66 -3 4.32 -3 5 C-3.99 5 -4.98 5 -6 5 C-6.33 4.01 -6.66 3.02 -7 2 C-4.69 1.34 -2.38 0.68 0 0 Z " fill="#1F65E4" transform="translate(55,99)"/>
<path d="M0 0 C3 2 3 2 3.6875 5.125 C3.8421875 6.548125 3.8421875 6.548125 4 8 C2.68 7.34 1.36 6.68 0 6 C0 4.02 0 2.04 0 0 Z " fill="#7822F6" transform="translate(209,57)"/>
<path d="M0 0 C0 0.99 0 1.98 0 3 C-0.99 3.33 -1.98 3.66 -3 4 C-4.32 2.68 -5.64 1.36 -7 0 C-4.3333581 -1.33332095 -2.83319697 -0.67102033 0 0 Z " fill="#287CE9" transform="translate(61,207)"/>
<path d="M0 0 C2.475 0.99 2.475 0.99 5 2 C5 2.99 5 3.98 5 5 C2.525 4.01 2.525 4.01 0 3 C0 2.01 0 1.02 0 0 Z " fill="#7E31F7" transform="translate(189,37)"/>
<path d="M0 0 C1.98 0.66 3.96 1.32 6 2 C5.67 2.99 5.34 3.98 5 5 C2.525 4.01 2.525 4.01 0 3 C0 2.01 0 1.02 0 0 Z " fill="#7E3EF5" transform="translate(171,25)"/>
</svg>
